<svg xmlns="http://www.w3.org/2000/svg" width="203.463" height="203.463" viewBox="0 0 203.463 203.463"><g id="Logo" transform="translate(0 0)"><rect id="Rectangle_1998" width="203.463" height="203.463" fill="#2e303c" data-name="Rectangle 1998" rx="60" transform="translate(0 0)"/><g id="Icon" transform="translate(35 36)"><g id="Letter" transform="translate(133.926 132.398) rotate(180)"><path id="Path_1" fill="#fff" d="M0,0V18.167L31.124,49.584H49.871Z" data-name="Path 1" transform="translate(0 17.876)"/><path id="Path_3" fill="#fff" d="M49.871,49.584V31.417L18.746,0H0Z" data-name="Path 3" transform="translate(84.055 63.409)"/><path id="Path_4" fill="#fff" d="M49.871,0V18.167L18.746,49.584,49.871,80.717V99.7L0,49.584Z" data-name="Path 4" transform="translate(117.577 82.527) rotate(90)"/><path id="Path_5" fill="#fff" d="M49.871,99.7V81.534L18.746,50.117,49.871,18.984V0L0,50.117Z" data-name="Path 5" transform="translate(14.82 49.871) rotate(-90)"/></g><circle id="Ellipse" cx="8.468" cy="8.468" r="8.468" fill="#e6007a" transform="translate(58.746 59.392)"/></g></g></svg>